<svg width="24" height="21" viewBox="0 0 24 21" fill="none" xmlns="http://www.w3.org/2000/svg">
<g filter="url(#filter0_d_22_17)">
<path d="M6.28669 0C4.46601 0 3 1.46601 3 3.28669V14.7133C3 16.534 4.46601 18 6.28669 18H12.4798V10.9631H10.6191V8.42962H12.4798V6.26512C12.4798 4.56457 13.5792 3.00319 16.1119 3.00319C17.1373 3.00319 17.8956 3.10163 17.8956 3.10163L17.8359 5.46751C17.8359 5.46751 17.0626 5.4602 16.2187 5.4602C15.3054 5.4602 15.159 5.881 15.159 6.57958V8.42963H17.9085L17.7887 10.9631H15.159V18H17.7133C19.534 18 21 16.534 21 14.7133V3.2867C21 1.46603 19.534 1.8e-05 17.7133 1.8e-05H6.28667L6.28669 0Z" fill="#E3E3F1"/>
</g>
<defs>
<filter id="filter0_d_22_17" x="-1" y="0" width="26" height="26" filterUnits="userSpaceOnUse" color-interpolation-filters="sRGB">
<feFlood flood-opacity="0" result="BackgroundImageFix"/>
<feColorMatrix in="SourceAlpha" type="matrix" values="0 0 0 0 0 0 0 0 0 0 0 0 0 0 0 0 0 0 127 0" result="hardAlpha"/>
<feOffset dy="4"/>
<feGaussianBlur stdDeviation="2"/>
<feComposite in2="hardAlpha" operator="out"/>
<feColorMatrix type="matrix" values="0 0 0 0 0 0 0 0 0 0 0 0 0 0 0 0 0 0 0.25 0"/>
<feBlend mode="normal" in2="BackgroundImageFix" result="effect1_dropShadow_22_17"/>
<feBlend mode="normal" in="SourceGraphic" in2="effect1_dropShadow_22_17" result="shape"/>
</filter>
</defs>
</svg>
